<svg xmlns="http://www.w3.org/2000/svg" width="670" height="694" version="1" viewBox="0 0 6700 6940">
  <path fill="#fff" d="M3209 5824c-29-31-136-107-209-148l-25-14 4 44c7 91-49 99-154 25-122-87-148-106-228-165-78-59-78-59-93-37-11 15-26 21-54 21-36 0-48-9-157-112-65-61-160-154-211-206l-92-94v59c0 67-11 83-55 83-36 0-65-27-85-80-7-19-18-41-24-49-6-7-17-34-26-60-14-39-21-47-46-49-16-2-35-8-41-14-7-6-41-66-75-134-57-113-63-121-76-103-8 12-25 19-47 19-45 0-59-23-74-125-29-195-63-328-112-452-28-71-55-139-60-152-9-22-11-23-28-7-23 21-74 21-93-1-15-17-88-232-103-300-6-29-10-33-40-33-18 0-37-6-42-12-19-24-89-805-78-865 3-18 3-33 0-33-4 0-47 22-97 50-123 68-168 66-168-8 0-29 11-46 67-106 56-59 64-71 48-75-11-2-26-8-33-13-14-12-16-71-2-96 5-9 25-64 43-122 71-217 132-350 213-467 36-53 42-68 37-97-10-64 156-366 300-543 45-57 59-79 44-73-12 4-55 22-96 39-113 48-156 39-149-31 3-29 15-41 108-106 173-121 371-244 440-273 36-15 83-37 104-48 22-11 55-24 73-27s33-9 33-13c0-3-37-24-83-46-78-38-82-42-85-76-5-65 4-67 226-36 211 29 271 33 427 29l100-3-55-25c-30-14-112-45-181-68-70-24-131-46-138-50-15-9-14-69 1-84 14-14 133-15 301-2 64 5 132 6 150 3 31-5 32-7 29-39-6-47 11-64 66-64 48 0 145 23 199 46 17 8 36 14 42 14 5 0-6-37-25-82-20-46-50-114-66-153-53-122-48-175 16-175 25 0 39 10 72 48 29 35 315 400 318 408 1 1 11 5 24 8 19 6 25 2 37-28 8-19 25-95 37-168s26-139 31-145c14-19 71-16 89 5 9 9 19 33 22 52 9 45 36 171 41 187 7 20 67-21 162-109 69-64 90-78 117-78 17 0 37 5 44 12 16 16 15 103-3 161-12 42-7 64 10 37 4-6 23-19 43-30 69-38 140-87 253-172 103-79 159-79 159-1 0 25-18 60-69 136-37 56-74 112-80 125l-12 22 118-2c120-3 280 9 298 22 6 4 32 15 59 24s100 45 162 81c108 63 164 111 164 140 0 7 25 25 55 39 75 34 178 103 251 167 54 48 224 241 224 254 0 3 23 34 50 69 61 75 100 95 255 126 61 12 116 27 123 32 16 14 15 73-2 87-8 7-44 17-81 23l-66 11 44 46c57 60 153 191 182 250 38 77 58 173 52 242-3 38 0 75 7 98 29 84 49 222 43 308-4 68-1 97 14 141 34 99 23 142-36 142h-31l7 58c3 32 12 69 19 82 19 35 28 208 20 360-8 156-47 439-63 459-8 9-25 12-52 8l-42-4-18 76c-10 42-25 87-34 101-10 14-25 42-35 64-10 21-26 41-36 43-18 5-26 28-45 129-3 18-22 67-40 110-19 44-35 85-35 93 0 12-37 98-61 141-5 8-17 34-28 57s-40 74-65 113c-41 63-49 70-78 70-30 0-36 5-67 67-44 85-277 472-298 495-18 21-73 24-91 6s-15-57 13-138c14-41 21-70 16-65-20 22-171 249-171 257 0 5-16 33-35 63-31 49-39 55-69 55-52 0-61-19-49-103 5-40 10-73 9-74s-75 68-166 153c-146 136-169 154-199 154-19 0-42-7-52-16-17-15-22-13-71 33-107 99-140 123-173 123-41 0-55-16-55-62 0-37-1-38-22-27-13 6-32 19-43 29-11 9-88 49-171 88-125 60-159 72-201 72-29 0-55-5-61-13-12-14-78-11-88 4-3 5-24 9-48 9-33 0-48-6-67-26zm81-66c0-65 12-148 21-148s29 90 29 135 11 44 42-2c35-52 115-133 132-133 8 0 16-4 18-8 5-12 99-64 105-58 3 3-2 21-11 41-9 19-23 51-32 70-16 34-58 77-119 122-30 22-30 22-6 23 27 0 314-133 346-160 11-10 34-25 51-33 17-9 65-39 107-66 42-28 79-51 82-51 4 0-17 43-45 95-28 53-50 100-48 106 6 19 256-207 322-291l28-35-6 36c-4 20-17 64-31 98-13 34-20 61-15 59s92-80 192-174c101-94 201-186 222-205 38-33 39-33 33-9-4 14-14 68-22 120s-17 106-20 120c-4 20 0 17 20-15 15-22 31-51 36-64 32-79 346-497 362-481 2 3-26 99-63 214-38 114-64 204-60 200 12-13 189-306 255-423 32-57 81-154 108-215l49-111-6 90-6 90 36-55c20-30 47-77 60-105 14-27 29-57 33-65 25-45 61-129 61-141 0-8 16-50 35-94s40-107 46-140c14-79 35-129 52-122 8 3 18-8 26-27 8-17 20-38 28-47 7-9 15-25 18-35 2-11 15-64 30-118 26-102 45-263 45-396 1-145 32-13 50 214 5 71 12 131 14 133s11-56 21-129c9-73 21-150 26-170s10-115 10-211c0-151-3-182-20-233-12-32-21-74-22-94 0-19-4-44-8-55-5-12-3-33 6-54 18-46 19-47 48-31 14 7 27 11 30 8 3-2-4-31-16-64-17-50-19-73-14-146 7-90-8-196-42-302-11-34-14-67-9-110 7-66-15-164-53-237-34-64-155-220-225-289-36-36-66-68-66-71s42-9 93-12c157-9 158-19 6-51-74-15-136-31-139-35-3-5-15-11-27-15-20-6-143-145-143-161 0-3-9-15-19-26s-45-53-77-92c-32-40-87-97-121-127-74-64-220-155-275-172-30-9-38-16-38-34 0-13-10-34-22-48-33-35-242-152-299-167-27-7-49-17-49-21 0-5-3-7-7-5-5 3-48-1-98-8-61-8-137-10-235-5-80 4-149 4-153 0s6-22 23-41 43-52 57-74 52-80 85-128c33-49 58-90 56-92s-33 19-68 47c-65 50-152 111-193 136-12 7-42 26-67 43-62 40-191 102-198 94-3-3 1-20 11-38 26-49 69-193 65-217-3-21-3-21-23-3-107 100-167 149-222 179-35 20-67 34-70 31-6-6-47-181-58-244-4-24-10-45-14-47-4-3-15 46-24 107-10 62-28 145-40 185l-22 74-45-7c-25-4-51-7-58-8-7 0-81-88-164-196-139-180-218-277-218-267 0 2 11 28 24 57 60 135 156 365 156 373 0 4-10 5-22 2-13-4-43-11-68-16-25-4-58-14-75-21-16-7-34-13-40-14-5-2-34-10-64-19-93-27-97-19-19 35 184 127 189 133 82 103-32-9-78-19-102-24-24-4-48-12-54-18-13-13-58-16-58-4 0 4-35 5-77 1-43-5-141-11-218-14l-140-6 117 40c171 59 251 95 314 143l58 43-55 7c-30 4-148 8-264 9-179 1-234-3-370-24-88-13-161-24-163-22-1 1 65 33 148 70s149 69 148 71c-2 1-56 16-122 33-65 17-133 40-150 50-17 11-54 28-83 39-28 11-100 50-160 87-107 67-349 229-368 247-5 5 51-16 125-47 112-47 266-95 304-95 5 0-15 17-44 38-61 42-171 165-263 294-68 96-229 395-217 403 5 3 10 2 12-2 4-11 144-132 191-167 70-52 48-21-68 94-63 62-115 115-115 117s-24 38-54 81c-92 133-149 256-223 482-18 58-39 113-44 123-12 21-9 30 6 19 11-7 23-30 87-153 37-73 150-200 165-186 6 6-54 148-112 265-18 37-40 83-48 102s-51 74-96 122c-45 47-81 89-81 91 0 7 173-88 235-129 27-18 51-31 53-29 3 2-1 28-9 57-22 95-15 240 43 798 12 118 13 122 19 70 4-30 8-116 9-190 3-131 3-133 11-58 20 189 136 643 164 643 6 0 15-48 21-108 6-59 13-109 16-112 2-2 16 35 31 83 14 48 56 159 92 247 72 173 93 249 125 450 31 190 39 192 33 10-3-88-3-158 0-155s19 48 36 102c35 105 202 451 208 431 3-7 0-36-6-64-11-52-8-71 8-53 14 15 101 212 101 229 0 8 4 15 9 15s17 23 27 51c28 77 44 83 44 18 0-79 11-159 22-159 12 0 18 6 100 106 37 44 86 98 110 119s94 87 157 147c63 59 118 108 123 108 4 0-9-34-29-75-40-81-39-103 5-63 25 23 223 174 318 241 21 15 70 50 109 78 38 27 71 46 73 41 1-5-13-49-32-98s-33-90-31-92c5-5 55 21 55 30 0 4 6 8 13 8 6 0 43 20 80 45 38 25 71 45 74 45 10 0 129 89 152 114 36 38 51 34 51-16z"/>
</svg>
